<svg xmlns="http://www.w3.org/2000/svg" viewBox="113.225 163.949 148.383 220.644">
  <defs>
    <style>
      .cls-1 {
        fill: #ffffff;
      }
    </style>
  </defs>
  <g id="Group_2" data-name="Group 2" transform="translate(35.087 51.817)">
    <path id="Union_1" data-name="Union 1" class="cls-1" d="M66.921,220.605a74.2,74.2,0,0,1-55.885-112.78,8.129,8.129,0,0,1,13.831,8.545,57.944,57.944,0,0,0,43.639,88.055,8.129,8.129,0,0,1-.783,16.22Q67.325,220.644,66.921,220.605Zm20.407-8.577a8.13,8.13,0,0,1,5.156-10.276,57.609,57.609,0,0,0,22.435-13.788q.066-.066.134-.129l.1-.1A57.941,57.941,0,0,0,127.722,124.6a8.129,8.129,0,1,1,15.022-6.216,74.2,74.2,0,0,1-16.1,80.849c-.053.053-.107.105-.161.156s-.088.09-.133.135A73.89,73.89,0,0,1,97.6,217.184a8.12,8.12,0,0,1-10.275-5.156ZM26.4,100.463A8.128,8.128,0,0,1,27.61,89.031q.646-.522,1.3-1.029V41.164l.052-1.931.026-.461.144-1.679.051-.457.236-1.654.079-.45.326-1.628.1-.44.414-1.6.126-.431.5-1.568.146-.418.584-1.535.167-.4.664-1.5.185-.389.744-1.463.2-.373.82-1.425L34.7,21l.895-1.383.232-.34.966-1.34.246-.323,1.035-1.295.257-.306,1.1-1.248.269-.29,1.168-1.2.277-.272,1.23-1.147.289-.257,1.289-1.093.3-.24L45.6,9.231l.305-.224,1.4-.98.312-.207L49.074,6.9l.319-.191,1.507-.86.324-.175,1.556-.8.331-.16,1.6-.73.337-.145L56.7,3.181l.342-.128,1.687-.592.348-.113L60.8,1.828l.352-.1,1.763-.446.356-.081,1.8-.369L65.427.77l1.83-.291.362-.048L69.479.219l.364-.032L71.729.059l.366-.017L74.007,0h.366l1.911.043.366.017,1.887.128L78.9.219,80.76.431l.362.048L82.951.77l.36.065,1.8.369.355.081,1.763.446.352.1,1.727.519.346.113,1.687.592.344.128,1.646.661.337.145,1.6.73.331.16,1.556.8.326.175,1.507.86L99.3,6.9l1.456.922.312.207,1.4.98.3.224,1.349,1.038.3.24,1.291,1.093.287.257,1.23,1.147.279.272,1.168,1.2.268.29,1.1,1.248.258.306,1.035,1.295.246.323.966,1.34.232.34L113.681,21l.218.358.82,1.425.2.373.744,1.463.185.389.665,1.5.166.4.584,1.535.146.418.5,1.568.124.431.416,1.6.1.44.327,1.628.077.45.236,1.654.052.457.144,1.679.026.461.048,1.7,0,47.068c.253.2.5.392.755.591a8.129,8.129,0,0,1-10.1,12.739,57.955,57.955,0,0,0-72.289.342A8.127,8.127,0,0,1,26.4,100.463ZM45.17,41.394l0,37.088a74.416,74.416,0,0,1,58.031,0V41.164l-.038-1.226-.106-1.235-.17-1.192-.239-1.187-.3-1.17-.361-1.128L101.56,32.9l-.494-1.115-.537-1.057L99.9,29.647l-.654-1.012-.74-1.027-.772-.966-.85-.963-.9-.923-.923-.861-1.009-.857-1.071-.824-1.079-.753-1.132-.716-1.181-.674-1.235-.632L87.1,18.867l-1.3-.524-1.36-.477-1.36-.409-1.423-.36-1.449-.3-1.449-.229-1.5-.17-1.521-.1-1.549-.035-1.55.035-1.522.1-1.5.171-1.444.229-1.45.3-1.424.36-1.362.409-1.359.477-1.29.519-1.256.571-1.257.643-1.168.667-1.134.717-1.093.763-1.058.815-1,.845-.949.885-.9.924-.825.935-.787.983-.724,1-.675,1.045-.607,1.053-.548,1.078-.485,1.093-.441,1.16-.359,1.125-.3,1.17-.234,1.167-.174,1.22-.1,1.2Z" transform="translate(78.138 112.132)"/>
    <path id="Path_3" data-name="Path 3" class="cls-1" d="M75.605,44.745a30.895,30.895,0,0,0-36.733-30.3A6.942,6.942,0,0,1,36.25.807,44.778,44.778,0,0,1,89.489,44.745a6.942,6.942,0,1,1-13.884,0ZM19.628,26.807A30.871,30.871,0,0,0,39.171,75.1a6.942,6.942,0,0,1-2.488,13.659A44.755,44.755,0,0,1,8.338,18.727a6.942,6.942,0,0,1,11.29,8.081Zm34.936,47.2A30.875,30.875,0,0,0,75.605,44.859a6.942,6.942,0,0,1,13.884.05A44.758,44.758,0,0,1,58.978,87.176a6.942,6.942,0,1,1-4.414-13.163Z" transform="translate(96.237 287.372) rotate(-72)"/>
    <path id="Path_4" data-name="Path 4" class="cls-1" d="M35.34-4.157A16.012,16.012,0,0,0,19.328-20.17,16.012,16.012,0,0,0,3.315-4.157,16.012,16.012,0,0,0,19.328,11.855,16.012,16.012,0,0,0,35.34-4.157Z" transform="translate(132.999 263.065)"/>
  </g>
</svg>
